mtllib materials.mtl
v -0.00618124 0.2020023 0.1142319
v -0.01194158 0.2017297 0.09508133
v -0.01206997 0.2217277 0.0948354
v -0.006309628 0.2220004 0.1139859
v 0.07042706 0.2022107 0.09118581
v 0.07029867 0.2222086 0.09093988
v 0.06453833 0.2219361 0.07178926
v 0.06466672 0.2019382 0.07203519
v -0.1974239 0.05091763 -0.07129991
v -0.1735521 0.05091763 0.01779115
v -0.1735521 -0.4390824 0.01779115
v -0.197424 -0.4390824 -0.07129979
v -0.108333 0.05091763 0.0830102
v -0.1083329 -0.4390824 0.08301032
v -0.01924202 0.05091763 0.1068821
v -0.01924208 -0.4390824 0.1068821
v 0.06984895 0.05091763 0.08301032
v 0.06984881 -0.4390824 0.08301032
v 0.1350681 0.05091763 0.01779127
v 0.135068 -0.4390824 0.01779127
v 0.15894 0.05091763 -0.07129979
v 0.15894 -0.4390824 -0.07129967
v 0.1350681 0.05091763 -0.1603907
v 0.1350681 -0.4390824 -0.1603907
v 0.06984904 0.05091763 -0.2256098
v 0.0698489 -0.4390824 -0.2256098
v -0.0192419 0.05091763 -0.2494817
v -0.01924196 -0.4390824 -0.2494817
v -0.1083328 0.05091763 -0.2256099
v -0.1083328 -0.4390824 -0.2256099
v -0.173552 0.05091763 -0.1603908
v -0.1735521 -0.4390824 -0.1603907
v -0.1974241 0.2759175 -0.07311797
v -0.1733087 0.2759175 0.01688206
v -0.1733087 0.05091774 0.01688206
v -0.197424 0.05091763 -0.07311785
v -0.107424 0.2759175 0.08276665
v -0.1074241 0.05091763 0.08276665
v -0.01742414 0.2759175 0.106882
v -0.01742417 0.05091763 0.1068821
v 0.07257575 0.2759175 0.08276677
v 0.07257584 0.05091763 0.08276665
v 0.1384605 0.2759175 0.01688218
v 0.1384604 0.05091763 0.01688218
v 0.162576 0.2759175 -0.07311773
v 0.1625759 0.05091763 -0.07311785
v 0.1384605 0.2759175 -0.1631178
v 0.1384604 0.05091763 -0.1631178
v 0.07257587 0.2759175 -0.2290024
v 0.0725759 0.05091763 -0.2290024
v -0.01742402 0.2759175 -0.2531177
v -0.01742405 0.05091763 -0.2531178
v -0.1074239 0.2759175 -0.2290025
v -0.107424 0.05091763 -0.2290024
v -0.1733086 0.2759175 -0.1631178
v -0.1733086 0.05091763 -0.1631178
v -0.09742418 0.3259174 -0.06811798
v -0.08603635 0.3259175 -0.02561796
v -0.08603638 0.1559175 -0.02561796
v -0.09742418 0.1559175 -0.06811798
v -0.05492422 0.3259174 0.005494118
v -0.05492422 0.1559175 0.005494118
v -0.01242423 0.3259174 0.01688206
v -0.01242423 0.1559175 0.01688206
v 0.03007579 0.3259174 0.005494237
v 0.03007576 0.1559175 0.005494237
v 0.06118795 0.3259174 -0.02561796
v 0.06118792 0.1559175 -0.02561796
v 0.07257578 0.3259174 -0.06811798
v 0.07257578 0.1559175 -0.06811798
v 0.06118795 0.3259174 -0.1106179
v 0.06118795 0.1559174 -0.1106179
v 0.03007582 0.3259174 -0.1417301
v 0.03007579 0.1559175 -0.1417301
v -0.01242417 0.3259174 -0.153118
v -0.01242417 0.1559175 -0.153118
v -0.05492416 0.3259174 -0.1417301
v -0.05492416 0.1559175 -0.1417301
v -0.08603635 0.3259174 -0.110618
v -0.08603635 0.1559175 -0.110618
v -0.1492417 -0.4040824 -0.0681181
v -0.1311553 -0.4040824 -0.0006181002
v -0.1311553 -0.4490825 -0.0006181002
v -0.1492418 -0.4490825 -0.0681181
v -0.08174184 -0.4040824 0.04879534
v -0.0817419 -0.4490825 0.04879534
v -0.01424193 -0.4040824 0.06688201
v -0.01424193 -0.4490825 0.0668819
v 0.05325797 -0.4040824 0.04879546
v 0.05325809 -0.4490825 0.04879546
v 0.1026715 -0.4040824 -0.0006178617
v 0.1026715 -0.4490825 -0.000617981
v 0.120758 -0.4040824 -0.06811798
v 0.1207581 -0.4490825 -0.06811798
v 0.1026716 -0.4040823 -0.135618
v 0.1026716 -0.4490824 -0.135618
v 0.05325809 -0.4040823 -0.1850314
v 0.05325815 -0.4490824 -0.1850314
v -0.01424181 -0.4040823 -0.203118
v -0.01424181 -0.4490824 -0.203118
v -0.08174172 -0.4040823 -0.1850315
v -0.08174178 -0.4490824 -0.1850315
v -0.1311553 -0.4040823 -0.135618
v -0.1311553 -0.4490825 -0.135618
v 0.02222589 0.2520758 0.1049747
v 0.01646554 0.2518033 0.08582413
v 0.03561762 0.2518553 0.08006263
v 0.04137796 0.2521279 0.09921324
v 0.02273944 0.1720835 0.1059586
v 0.04189152 0.1721356 0.1001971
v 0.03613117 0.1718631 0.08104646
v 0.01697913 0.171811 0.08680809
v -0.01175341 -0.4080673 0.109043
v -0.01706478 -0.4071738 0.08978188
v -0.01685819 -0.3871938 0.09065175
v -0.01154685 -0.3880874 0.1099129
v 0.06536952 -0.407939 0.08778191
v 0.06557611 -0.387959 0.0886519
v 0.06026474 -0.3870654 0.06939077
v 0.06005818 -0.4070454 0.06852078
vn -0.9576039 -0.002604702 0.2880764
vn 0.9576039 0.002604499 -0.2880764
vn 0.00641959 -0.9999038 0.01229834
vn -0.006419367 0.9999038 -0.01229841
vn 0.2880168 0.01362628 0.9575285
vn -0.2880166 -0.01362628 -0.9575285
vn -0.9659259 2.773535E-07 0.2588191
vn -0.7071067 1.38209E-07 0.7071069
vn -0.2588194 7.22393E-08 0.9659258
vn 0.2588187 2.487681E-08 0.9659259
vn 0.7071061 -6.471566E-08 0.7071075
vn 0.9659256 4.656235E-08 0.2588197
vn 0.9659258 3.423614E-08 -0.2588192
vn 0.7071067 -1.115998E-07 -0.707107
vn 0.2588194 -1.046153E-07 -0.9659258
vn -0.2588187 -2.684049E-08 -0.9659259
vn -0.7071066 -1.162289E-08 -0.707107
vn -0.9659256 2.030336E-07 -0.2588199
vn 1.512258E-07 1 -5.960463E-08
vn -1.119045E-07 -1 5.960464E-08
vn -0.9659259 -2.535824E-07 0.2588189
vn -0.7071066 -5.05081E-08 0.707107
vn -0.258819 7.013298E-08 0.9659259
vn 0.2588183 6.53281E-08 0.9659261
vn 0.7071062 -1.399592E-07 0.7071074
vn 0.9659257 -4.890866E-07 0.2588195
vn 0.9659259 -5.912237E-07 -0.258819
vn 0.7071067 -3.385115E-07 -0.7071069
vn 0.258819 -6.37079E-08 -0.9659258
vn -0.2588183 -8.024211E-09 -0.9659261
vn -0.7071065 4.791788E-08 -0.7071071
vn -0.9659256 -1.910257E-07 -0.2588197
vn 1.218232E-07 1 -5.960464E-08
vn -1.340491E-07 -1 5.960464E-08
vn -0.9659259 1.314775E-07 0.2588186
vn -0.707107 1.327735E-07 0.7071066
vn -0.2588193 8.323939E-08 0.9659258
vn 0.2588186 3.011057E-08 0.9659259
vn 0.7071066 -4.480659E-08 0.7071071
vn 0.9659258 -9.88022E-08 0.2588193
vn 0.9659259 -1.306471E-07 -0.2588189
vn 0.707107 -1.29169E-07 -0.7071066
vn 0.2588193 -9.950437E-08 -0.9659258
vn -0.2588186 -2.816337E-08 -0.9659259
vn -0.7071065 4.536693E-08 -0.7071071
vn -0.9659258 1.005302E-07 -0.2588191
vn 8.701802E-08 1 -5.960465E-08
vn -1.191749E-07 -1 5.960464E-08
vn -0.9659263 1.309071E-06 0.2588174
vn -0.7071072 5.619608E-07 0.7071065
vn -0.2588194 -7.227591E-07 0.9659258
vn 0.2588185 -4.868773E-07 0.9659261
vn 0.7071059 -5.003649E-07 0.7071077
vn 0.9659261 9.837046E-07 0.258818
vn 0.9659263 1.163766E-06 -0.258817
vn 0.7071065 -1.538875E-07 -0.7071072
vn 0.2588194 1.741286E-07 -0.9659257
vn -0.2588185 -3.153363E-08 -0.9659259
vn -0.7071065 8.349763E-07 -0.7071072
vn -0.9659261 1.594085E-06 -0.2588183
vn -4.289807E-08 1 4.172326E-07
vn 4.578684E-08 -1 -4.172326E-07
vn -0.006419483 0.9999038 -0.01229831
vn 0.006419289 -0.9999038 0.01229837
vn -0.9576039 -0.002604666 0.2880764
vn 0.9576039 0.002604433 -0.2880764
vn 0.2880166 0.01362601 0.9575285
vn -0.2880166 -0.01362625 -0.9575285
vn -0.964037 -0.001604852 0.2657634
vn 0.964037 0.001604649 -0.2657634
vn -0.01032834 -0.9990001 -0.0434983
vn 0.01032856 0.9990001 0.04349823
vn 0.2655676 -0.04467884 0.9630564
vn -0.2655674 0.04467884 -0.9630565
vt -0.1467336 0.1672561
vt -0.1447425 0.1674446
vt -0.144931 0.1694357
vt -0.1469221 0.1692472
vt 0.1467336 0.1672561
vt 0.1469222 0.1692472
vt 0.144931 0.1694357
vt 0.1447425 0.1674446
vt 0.1303137 -0.002912281
vt 0.1306686 0.005079845
vt 0.1286705 0.00516856
vt 0.1283157 -0.002823566
vt -0.1303137 -0.002912321
vt -0.1283157 -0.00282361
vt -0.1286705 0.005168516
vt -0.1306686 0.005079801
vt 0.1620615 0.07916933
vt 0.1638723 0.0800185
vt 0.1604756 0.08726161
vt 0.1586648 0.08641245
vt -0.1620615 0.07916937
vt -0.1586648 0.0864125
vt -0.1604756 0.08726165
vt -0.1638722 0.08001853
vt -0.1316774 0.1467718
vt -0.1407669 0.1452056
vt -0.1324464 0.09691725
vt -0.1233569 0.09848343
vt 0.04197994 0.1875336
vt 0.03515535 0.1937381
vt 0.002193458 0.1574819
vt 0.009018053 0.1512774
vt 0.1158117 0.1338408
vt 0.1112296 0.1418455
vt 0.06870385 0.117503
vt 0.07328586 0.1094983
vt 0.1487709 0.07604858
vt 0.1448311 0.08438814
vt 0.1005264 0.06345735
vt 0.1044663 0.0551178
vt 0.1715902 0.03208664
vt 0.1673284 0.04026634
vt 0.123873 0.01762497
vt 0.1281348 0.009445268
vt 0.1888891 0.03373698
vt 0.1830064 0.04084084
vt 0.1452666 0.009588543
vt 0.1511493 0.002484693
vt 0.1407668 0.1452057
vt 0.1316774 0.1467718
vt 0.1233569 0.09848346
vt 0.1324464 0.09691726
vt -0.03515537 0.1937381
vt -0.04197995 0.1875336
vt -0.009018068 0.1512774
vt -0.002193478 0.1574819
vt -0.1112296 0.1418455
vt -0.1158117 0.1338408
vt -0.07328587 0.1094983
vt -0.06870385 0.117503
vt -0.1448311 0.08438814
vt -0.1487709 0.07604858
vt -0.1044663 0.0551178
vt -0.1005264 0.06345735
vt -0.1673284 0.04026629
vt -0.1715902 0.03208659
vt -0.1281349 0.009445204
vt -0.123873 0.01762492
vt -0.1830064 0.04084085
vt -0.1888891 0.03373701
vt -0.1511493 0.002484708
vt -0.1452666 0.009588554
vt -0.0963102 -0.01062439
vt -0.09236179 -0.002288868
vt -0.09311014 0.006904096
vt -0.09835471 0.01449127
vt -0.1066902 0.01843966
vt -0.1158832 0.01769133
vt -0.1234704 0.01244675
vt -0.1274188 0.004111237
vt -0.1266704 -0.005081728
vt -0.1214258 -0.0126689
vt -0.1130903 -0.0166173
vt -0.1038974 -0.01586895
vt 0.1038974 -0.01586896
vt 0.1130903 -0.01661729
vt 0.1214259 -0.01266889
vt 0.1266704 -0.005081721
vt 0.1274188 0.004111236
vt 0.1234704 0.01244676
vt 0.1158832 0.01769133
vt 0.1066902 0.01843967
vt 0.0983547 0.01449126
vt 0.09311014 0.006904101
vt 0.09236179 -0.002288856
vt 0.09631021 -0.01062438
vt -0.1353251 0.1689748
vt -0.1445073 0.1673926
vt -0.1406866 0.1452194
vt -0.1315045 0.1468016
vt 0.05715038 0.2041502
vt 0.05025616 0.210418
vt 0.0351206 0.1937698
vt 0.04201483 0.187502
vt 0.1352984 0.1450891
vt 0.1306696 0.1531755
vt 0.1111425 0.1419978
vt 0.1157712 0.1339114
vt 0.1690398 0.08581848
vt 0.1650598 0.09424311
vt 0.1447158 0.08463205
vt 0.1486959 0.0762074
vt 0.1914472 0.04266945
vt 0.1871418 0.05093262
vt 0.1671878 0.04053608
vt 0.1714932 0.03227293
vt 0.2061066 0.0482229
vt 0.2001639 0.05539922
vt 0.1828344 0.04104869
vt 0.1887771 0.03387235
vt 0.1445072 0.1673927
vt 0.135325 0.1689749
vt 0.1315044 0.1468017
vt 0.1406865 0.1452195
vt -0.05025604 0.2104181
vt -0.05715027 0.2041502
vt -0.04201472 0.187502
vt -0.03512049 0.1937698
vt -0.1306696 0.1531755
vt -0.1352984 0.1450891
vt -0.1157712 0.1339114
vt -0.1111424 0.1419978
vt -0.1650598 0.0942431
vt -0.1690398 0.08581846
vt -0.1486959 0.07620738
vt -0.1447158 0.08463203
vt -0.1871418 0.05093259
vt -0.1914472 0.04266942
vt -0.1714932 0.03227288
vt -0.1671878 0.04053604
vt -0.2001639 0.05539905
vt -0.2061066 0.04822273
vt -0.1887771 0.03387219
vt -0.1828344 0.04104852
vt -0.09606157 -0.01050975
vt -0.09207287 -0.002089163
vt -0.09282886 0.007197587
vt -0.09812693 0.01486217
vt -0.1065475 0.01885087
vt -0.1158343 0.01809489
vt -0.1234989 0.0127968
vt -0.1274875 0.004376224
vt -0.1267315 -0.004910524
vt -0.1214335 -0.0125751
vt -0.1130129 -0.0165638
vt -0.1037261 -0.01580782
vt 0.1037261 -0.01580782
vt 0.1130129 -0.0165638
vt 0.1214335 -0.01257511
vt 0.1267315 -0.004910531
vt 0.1274875 0.004376237
vt 0.1234988 0.0127968
vt 0.1158343 0.01809488
vt 0.1065475 0.01885085
vt 0.09812693 0.01486217
vt 0.09282885 0.007197588
vt 0.09207288 -0.002089172
vt 0.09606157 -0.01050974
vt -0.1392008 0.1733806
vt -0.1435368 0.1726335
vt -0.1406501 0.1558804
vt -0.1363141 0.1566275
vt 0.05817116 0.2099795
vt 0.05491555 0.2129393
vt 0.04347981 0.2003606
vt 0.04673541 0.1974008
vt 0.138112 0.1502384
vt 0.1359262 0.154057
vt 0.1211724 0.1456116
vt 0.1233582 0.1417931
vt 0.1723594 0.09049705
vt 0.17048 0.09447536
vt 0.155109 0.08721367
vt 0.1569884 0.08323536
vt 0.1947452 0.04716031
vt 0.1927122 0.05106236
vt 0.1776358 0.04320719
vt 0.1796689 0.03930514
vt 0.2086149 0.05303328
vt 0.2058086 0.0564221
vt 0.1927152 0.04557948
vt 0.1955214 0.04219066
vt 0.1435367 0.1726335
vt 0.1392007 0.1733807
vt 0.136314 0.1566276
vt 0.14065 0.1558804
vt -0.05491556 0.2129393
vt -0.05817116 0.2099795
vt -0.04673542 0.1974008
vt -0.04347981 0.2003606
vt -0.1359262 0.154057
vt -0.138112 0.1502384
vt -0.1233582 0.1417931
vt -0.1211724 0.1456116
vt -0.17048 0.09447536
vt -0.1723594 0.09049705
vt -0.1569884 0.08323536
vt -0.155109 0.08721367
vt -0.1927122 0.05106235
vt -0.1947453 0.04716031
vt -0.1796689 0.03930514
vt -0.1776358 0.04320719
vt -0.2058086 0.05642213
vt -0.2086149 0.0530333
vt -0.1955215 0.04219068
vt -0.1927152 0.0455795
vt -0.103941 -0.004056704
vt -0.1020574 -8.032335E-05
vt -0.1024144 0.004305093
vt -0.1049163 0.007924481
vt -0.1088927 0.009808024
vt -0.1132781 0.009451036
vt -0.1168975 0.006949166
vt -0.118781 0.002972787
vt -0.118424 -0.001412632
vt -0.1159222 -0.005032016
vt -0.1119458 -0.006915564
vt -0.1075604 -0.006558573
vt 0.1075604 -0.006558577
vt 0.1119458 -0.006915571
vt 0.1159222 -0.00503202
vt 0.118424 -0.001412636
vt 0.118781 0.00297278
vt 0.1168975 0.006949159
vt 0.1132781 0.009451033
vt 0.1088927 0.009808021
vt 0.1049163 0.007924473
vt 0.1024144 0.004305089
vt 0.1020574 -8.032699E-05
vt 0.103941 -0.004056707
vt -0.1254834 0.1016683
vt -0.13237 0.1004816
vt -0.1316059 0.09604695
vt -0.1247192 0.0972336
vt 0.01011722 0.1550082
vt 0.004946544 0.159709
vt 0.001919433 0.1563793
vt 0.007090104 0.1516785
vt 0.07548748 0.1126976
vt 0.0720159 0.1187624
vt 0.06811045 0.1165269
vt 0.07158203 0.1104621
vt 0.1069824 0.05798566
vt 0.1039973 0.06430414
vt 0.09992854 0.06238193
vt 0.1029136 0.05606344
vt 0.130663 0.01216777
vt 0.127434 0.01836514
vt 0.1234432 0.01628583
vt 0.1266722 0.01008846
vt 0.1532456 0.005440675
vt 0.1487886 0.01082293
vt 0.1453227 0.007952817
vt 0.1497797 0.002570569
vt 0.1323701 0.1004814
vt 0.1254835 0.101668
vt 0.1247194 0.09723338
vt 0.131606 0.09604672
vt -0.00494683 0.159709
vt -0.0101175 0.1550081
vt -0.007090374 0.1516785
vt -0.001919708 0.1563793
vt -0.07201582 0.1187624
vt -0.07548741 0.1126976
vt -0.07158197 0.1104621
vt -0.06811038 0.1165269
vt -0.1039973 0.06430413
vt -0.1069823 0.05798564
vt -0.1029135 0.05606342
vt -0.09992851 0.0623819
vt -0.1274341 0.01836511
vt -0.1306631 0.01216773
vt -0.1266722 0.01008841
vt -0.1234433 0.01628579
vt -0.1487887 0.01082337
vt -0.1532457 0.005441138
vt -0.1497798 0.002571014
vt -0.1453228 0.007953248
vt -0.1000691 -0.007464879
vt -0.09707755 -0.00114944
vt -0.09764453 0.005815626
vt -0.1016181 0.01156406
vt -0.1079335 0.01455558
vt -0.1148986 0.01398857
vt -0.120647 0.01001502
vt -0.1236385 0.003699591
vt -0.1230716 -0.003265475
vt -0.119098 -0.009013902
vt -0.1127826 -0.01200542
vt -0.1058175 -0.01143842
vt 0.1058175 -0.01143843
vt 0.1127826 -0.01200542
vt 0.119098 -0.009013908
vt 0.1230716 -0.003265471
vt 0.1236385 0.003699602
vt 0.120647 0.01001503
vt 0.1148986 0.01398859
vt 0.1079335 0.01455558
vt 0.1016181 0.01156406
vt 0.09764454 0.005815623
vt 0.09707755 -0.001149446
vt 0.1000691 -0.007464877
vt -0.1304468 8.474033E-05
vt -0.1284487 0.0001734559
vt -0.1285374 0.002171486
vt -0.1305355 0.002082771
vt 0.1304468 8.470832E-05
vt 0.1305355 0.002082739
vt 0.1285374 0.002171454
vt 0.1284487 0.0001734227
vt -0.1472049 0.1722339
vt -0.1464508 0.1642695
vt -0.1444598 0.164458
vt -0.1452138 0.1724224
vt 0.1472049 0.1722339
vt 0.1452138 0.1724224
vt 0.1444598 0.164458
vt 0.1464508 0.1642695
vt 0.1653147 0.08400846
vt 0.1644656 0.08581924
vt 0.1572224 0.08242259
vt 0.1580716 0.08061181
vt -0.1653147 0.08400845
vt -0.1580716 0.0806118
vt -0.1572224 0.08242258
vt -0.1644655 0.08581923
vt -0.1444093 0.09982818
vt -0.1424496 0.1002275
vt -0.1428489 0.1021872
vt -0.1448086 0.1017879
vt 0.1444093 0.0998282
vt 0.1448086 0.1017879
vt 0.1428489 0.1021873
vt 0.1424496 0.1002275
vt 0.1215122 -0.006365797
vt 0.1222691 0.001598312
vt 0.1202781 0.001787543
vt 0.1195212 -0.006176569
vt -0.1215122 -0.006365824
vt -0.1195212 -0.006176594
vt -0.1202781 0.001787512
vt -0.1222692 0.001598284
vt 0.1125991 0.05821202
vt 0.1144117 0.05905743
vt 0.1110301 0.06630757
vt 0.1092175 0.06546216
vt -0.1125991 0.05821205
vt -0.1092175 0.06546219
vt -0.11103 0.0663076
vt -0.1144117 0.05905746
o group972917692
g mesh972917692
usemtl mat22
f 116/340/69 115/339/69 114/338/69 113/337/69
f 120/344/70 119/343/70 118/342/70 117/341/70
f 114/348/71 120/347/71 117/346/71 113/345/71
f 118/352/72 119/351/72 115/350/72 116/349/72
f 117/356/73 118/355/73 116/354/73 113/353/73
f 115/360/74 119/359/74 120/358/74 114/357/74
o group1735691143
g mesh1735691143
usemtl mat22
f 4/4/1 3/3/1 2/2/1 1/1/1
f 8/8/2 7/7/2 6/6/2 5/5/2
f 2/12/3 8/11/3 5/10/3 1/9/3
f 6/16/4 7/15/4 3/14/4 4/13/4
f 5/20/5 6/19/5 4/18/5 1/17/5
f 3/24/6 7/23/6 8/22/6 2/21/6
f 108/316/63 107/315/63 106/314/63 105/313/63
f 112/320/64 111/319/64 110/318/64 109/317/64
f 106/324/65 112/323/65 109/322/65 105/321/65
f 110/328/66 111/327/66 107/326/66 108/325/66
f 109/332/67 110/331/67 108/330/67 105/329/67
f 107/336/68 111/335/68 112/334/68 106/333/68
o group1182958969
g mesh1182958969
usemtl mat23
f 12/28/7 11/27/7 10/26/7 9/25/7
f 11/32/8 14/31/8 13/30/8 10/29/8
f 14/36/9 16/35/9 15/34/9 13/33/9
f 16/40/10 18/39/10 17/38/10 15/37/10
f 18/44/11 20/43/11 19/42/11 17/41/11
f 20/48/12 22/47/12 21/46/12 19/45/12
f 22/52/13 24/51/13 23/50/13 21/49/13
f 24/56/14 26/55/14 25/54/14 23/53/14
f 26/60/15 28/59/15 27/58/15 25/57/15
f 28/64/16 30/63/16 29/62/16 27/61/16
f 30/68/17 32/67/17 31/66/17 29/65/17
f 32/72/18 12/71/18 9/70/18 31/69/18
f 9/84/19 10/83/19 13/82/19 15/81/19 17/80/19 19/79/19 21/78/19 23/77/19 25/76/19 27/75/19 29/74/19 31/73/19
f 32/96/20 30/95/20 28/94/20 26/93/20 24/92/20 22/91/20 20/90/20 18/89/20 16/88/20 14/87/20 11/86/20 12/85/20
usemtl mat13
f 36/100/21 35/99/21 34/98/21 33/97/21
f 35/104/22 38/103/22 37/102/22 34/101/22
f 38/108/23 40/107/23 39/106/23 37/105/23
f 40/112/24 42/111/24 41/110/24 39/109/24
f 42/116/25 44/115/25 43/114/25 41/113/25
f 44/120/26 46/119/26 45/118/26 43/117/26
f 46/124/27 48/123/27 47/122/27 45/121/27
f 48/128/28 50/127/28 49/126/28 47/125/28
f 50/132/29 52/131/29 51/130/29 49/129/29
f 52/136/30 54/135/30 53/134/30 51/133/30
f 54/140/31 56/139/31 55/138/31 53/137/31
f 56/144/32 36/143/32 33/142/32 55/141/32
f 33/156/33 34/155/33 37/154/33 39/153/33 41/152/33 43/151/33 45/150/33 47/149/33 49/148/33 51/147/33 53/146/33 55/145/33
f 56/168/34 54/167/34 52/166/34 50/165/34 48/164/34 46/163/34 44/162/34 42/161/34 40/160/34 38/159/34 35/158/34 36/157/34
usemtl mat22
f 60/172/35 59/171/35 58/170/35 57/169/35
f 59/176/36 62/175/36 61/174/36 58/173/36
f 62/180/37 64/179/37 63/178/37 61/177/37
f 64/184/38 66/183/38 65/182/38 63/181/38
f 66/188/39 68/187/39 67/186/39 65/185/39
f 68/192/40 70/191/40 69/190/40 67/189/40
f 70/196/41 72/195/41 71/194/41 69/193/41
f 72/200/42 74/199/42 73/198/42 71/197/42
f 74/204/43 76/203/43 75/202/43 73/201/43
f 76/208/44 78/207/44 77/206/44 75/205/44
f 78/212/45 80/211/45 79/210/45 77/209/45
f 80/216/46 60/215/46 57/214/46 79/213/46
f 57/228/47 58/227/47 61/226/47 63/225/47 65/224/47 67/223/47 69/222/47 71/221/47 73/220/47 75/219/47 77/218/47 79/217/47
f 80/240/48 78/239/48 76/238/48 74/237/48 72/236/48 70/235/48 68/234/48 66/233/48 64/232/48 62/231/48 59/230/48 60/229/48
f 84/244/49 83/243/49 82/242/49 81/241/49
f 83/248/50 86/247/50 85/246/50 82/245/50
f 86/252/51 88/251/51 87/250/51 85/249/51
f 88/256/52 90/255/52 89/254/52 87/253/52
f 90/260/53 92/259/53 91/258/53 89/257/53
f 92/264/54 94/263/54 93/262/54 91/261/54
f 94/268/55 96/267/55 95/266/55 93/265/55
f 96/272/56 98/271/56 97/270/56 95/269/56
f 98/276/57 100/275/57 99/274/57 97/273/57
f 100/280/58 102/279/58 101/278/58 99/277/58
f 102/284/59 104/283/59 103/282/59 101/281/59
f 104/288/60 84/287/60 81/286/60 103/285/60
f 81/300/61 82/299/61 85/298/61 87/297/61 89/296/61 91/295/61 93/294/61 95/293/61 97/292/61 99/291/61 101/290/61 103/289/61
f 104/312/62 102/311/62 100/310/62 98/309/62 96/308/62 94/307/62 92/306/62 90/305/62 88/304/62 86/303/62 83/302/62 84/301/62
